<svg width="520" height="755" viewBox="0 0 520 755" fill="none" xmlns="http://www.w3.org/2000/svg">
<path d="M329.144 97.522C329.144 43.662 296.397 0 256.002 0C249.613 0 243.415 1.092 237.508 3.144C206.067 14.066 195.669 63.256 195.669 97.522C195.669 151.382 215.607 183.923 256.002 183.923C275.848 183.923 293.847 184.506 307.025 167.397C320.669 149.681 329.144 124.921 329.144 97.522V97.522Z" fill="#EAD1FF"/>
<path d="M288.509 170.664C248.114 170.664 215.367 127.001 215.367 73.142C215.367 45.713 223.837 20.864 237.507 3.14499C206.057 14.059 182.859 52.172 182.859 97.523C182.859 151.383 215.606 195.045 256.001 195.045C275.825 195.045 293.85 184.472 307.024 167.397C301.123 169.445 294.892 170.664 288.509 170.664Z" fill="#D6BDEF"/>
<path d="M225.087 122.625C206.666 72.013 160.961 42.184 123.002 56C116.998 58.185 111.548 61.331 106.699 65.28C80.89 86.297 87.942 136.077 99.662 168.276C118.083 218.888 147.949 242.647 185.908 228.831C204.557 222.043 221.67 216.435 228.202 195.851C234.964 174.537 234.458 148.372 225.087 122.625V122.625Z" fill="#FFF0AF"/>
<path d="M211.92 205.254C173.961 219.07 128.256 189.241 109.835 138.629C100.454 112.854 99.914 86.607 106.7 65.281C80.879 86.293 72.116 130.042 87.627 172.658C106.048 223.27 151.753 253.099 189.712 239.283C208.34 232.503 221.663 216.403 228.202 195.852C223.356 199.794 217.917 203.071 211.92 205.254V205.254Z" fill="#FFE07D"/>
<path d="M427.499 173.027C445.92 122.415 430.082 70.186 392.123 56.37C386.119 54.185 379.922 53.091 373.669 52.999C340.389 52.509 313.793 95.176 302.074 127.375C283.653 177.987 291.259 215.384 329.218 229.2C347.867 235.988 364.582 242.692 382.816 231.121C401.696 219.143 418.128 198.774 427.499 173.027V173.027Z" fill="#FF7D91"/>
<path d="M364.299 227.86C326.34 214.044 310.502 161.815 328.923 111.203C338.304 85.428 354.762 64.975 373.669 52.999C340.382 52.498 305.549 80.379 290.038 122.995C271.617 173.607 287.455 225.836 325.414 239.652C344.042 246.432 364.597 242.662 382.816 231.123C376.569 231.029 370.297 230.043 364.299 227.86V227.86Z" fill="#E15F78"/>
<path d="M256.002 511.992C251.51 511.992 247.875 508.357 247.875 503.865V373.835C247.875 369.343 251.51 365.708 256.002 365.708C260.494 365.708 264.129 369.343 264.129 373.835V503.865C264.129 508.357 260.494 511.992 256.002 511.992Z" fill="#F5EBCD"/>
<path d="M285.732 511.992C284.811 511.992 283.867 511.833 282.954 511.5C278.732 509.968 276.557 505.302 278.097 501.087L316.176 396.454C317.708 392.24 322.398 390.073 326.589 391.597C330.811 393.129 332.986 397.795 331.446 402.01L293.367 506.643C292.168 509.944 289.049 511.992 285.732 511.992V511.992Z" fill="#F5EBCD"/>
<path d="M226.233 512C222.916 512 219.797 509.952 218.598 506.651L180.519 402.026C178.979 397.812 181.154 393.145 185.376 391.613C189.566 390.081 194.257 392.248 195.789 396.47L233.868 501.095C235.408 505.309 233.233 509.976 229.011 511.508C228.098 511.841 227.153 512 226.233 512V512Z" fill="#F5EBCD"/>
<path d="M199.598 388.138L175.805 365.319L172.246 398.093C171.596 404.076 177.449 408.666 183.105 406.607L196.752 401.64C202.408 399.582 203.941 392.304 199.598 388.138Z" fill="#64ACDC"/>
<path d="M312.361 388.138L336.162 365.305L339.718 398.095C340.367 404.078 334.514 408.666 328.859 406.608L315.208 401.639C309.552 399.581 308.018 392.304 312.361 388.138Z" fill="#FF8B5A"/>
<path d="M241.566 370.201L256.003 341.328L270.439 370.201C273.141 375.605 269.211 381.962 263.17 381.962H248.835C242.793 381.962 238.864 375.605 241.566 370.201V370.201Z" fill="#78C2A4"/>
<path d="M214.229 256.92C195.808 206.308 150.103 176.479 112.144 190.295C106.14 192.48 100.69 195.626 95.841 199.575C70.032 220.592 77.084 270.372 88.804 302.571C107.225 353.183 137.091 376.942 175.05 363.126C193.699 356.338 210.812 350.73 217.344 330.146C224.105 308.832 223.6 282.666 214.229 256.92V256.92Z" fill="#9BD7EE"/>
<path d="M201.061 339.548C163.102 353.364 117.397 323.535 98.976 272.923C89.595 247.148 89.055 220.901 95.841 199.575C70.02 220.587 61.257 264.336 76.768 306.952C95.189 357.564 140.894 387.393 178.853 373.577C197.481 366.797 210.804 350.697 217.343 330.146C212.497 334.089 207.059 337.365 201.061 339.548Z" fill="#7DC3EE"/>
<path d="M435.237 306.952C453.658 256.34 437.82 204.111 399.861 190.295C393.857 188.11 387.66 187.016 381.407 186.924C348.127 186.434 321.531 229.101 309.812 261.3C291.391 311.912 298.997 349.309 336.956 363.125C355.605 369.913 372.32 376.617 390.554 365.046C409.434 353.067 425.865 332.698 435.237 306.952Z" fill="#FFC269"/>
<path d="M372.037 361.785C334.078 347.969 318.24 295.74 336.661 245.128C346.042 219.353 362.5 198.9 381.407 186.924C348.12 186.423 313.287 214.304 297.776 256.92C279.355 307.532 295.193 359.761 333.152 373.577C351.78 380.357 372.335 376.587 390.554 365.048C384.307 364.953 378.034 363.967 372.037 361.785V361.785Z" fill="#FFA95F"/>
<path d="M329.144 251.933C329.144 198.073 296.397 154.411 256.002 154.411C249.613 154.411 243.415 155.503 237.508 157.555C206.067 168.477 195.669 217.667 195.669 251.933C195.669 305.793 215.607 338.334 256.002 338.334C275.848 338.334 293.847 338.917 307.025 321.808C320.669 304.092 329.144 279.332 329.144 251.933Z" fill="#AFEFA5"/>
<path d="M288.509 325.074C248.114 325.074 215.367 281.411 215.367 227.552C215.367 200.123 223.837 175.274 237.507 157.555C206.057 168.469 182.859 206.582 182.859 251.933C182.859 305.793 215.606 349.455 256.001 349.455C275.825 349.455 293.85 338.882 307.024 321.807C301.123 323.855 294.892 325.074 288.509 325.074V325.074Z" fill="#8CE1A4"/>
<path d="M337.144 340.522C337.144 286.662 304.397 243 264.002 243C257.613 243 251.415 244.092 245.508 246.144C214.067 257.066 203.669 306.256 203.669 340.522C203.669 394.382 223.607 426.923 264.002 426.923C283.848 426.923 301.847 427.506 315.025 410.397C328.669 392.681 337.144 367.921 337.144 340.522V340.522Z" fill="#F6FFD1"/>
<path d="M296.509 413.664C256.114 413.664 223.367 370.001 223.367 316.142C223.367 288.713 231.837 263.864 245.507 246.145C214.057 257.059 190.859 295.172 190.859 340.523C190.859 394.383 223.606 438.045 264.001 438.045C283.825 438.045 301.85 427.472 315.024 410.397C309.123 412.445 302.892 413.664 296.509 413.664Z" fill="#EBEFBD"/>
<path d="M233.087 365.625C214.666 315.013 168.961 285.184 131.002 299C124.998 301.185 119.548 304.331 114.699 308.28C88.89 329.297 95.942 379.077 107.662 411.276C126.083 461.888 155.949 485.647 193.908 471.831C212.557 465.043 229.67 459.435 236.202 438.851C242.964 417.537 242.458 391.372 233.087 365.625V365.625Z" fill="#FFAFAF"/>
<path d="M219.92 448.254C181.961 462.07 136.256 432.241 117.835 381.629C108.454 355.854 107.914 329.607 114.7 308.281C88.879 329.293 80.116 373.042 95.627 415.658C114.048 466.27 159.753 496.099 197.712 482.283C216.34 475.503 229.663 459.403 236.202 438.852C231.356 442.794 225.917 446.071 219.92 448.254V448.254Z" fill="#FF7D7D"/>
<path d="M435.499 416.027C453.92 365.415 438.082 313.186 400.123 299.37C394.119 297.185 387.922 296.091 381.669 295.999C348.389 295.509 321.793 338.176 310.074 370.375C291.653 420.987 299.259 458.384 337.218 472.2C355.867 478.988 372.582 485.692 390.816 474.121C409.696 462.143 426.128 441.774 435.499 416.027Z" fill="#7DE0FF"/>
<path d="M372.299 470.86C334.34 457.044 318.502 404.815 336.923 354.203C346.304 328.428 362.762 307.975 381.669 295.999C348.382 295.498 313.549 323.379 298.038 365.995C279.617 416.607 295.455 468.836 333.414 482.652C352.042 489.432 372.597 485.662 390.816 474.123C384.569 474.029 378.297 473.043 372.299 470.86V470.86Z" fill="#5FCAE1"/>
<path d="M264.002 754.992C259.51 754.992 255.875 751.357 255.875 746.865V616.835C255.875 612.343 259.51 608.708 264.002 608.708C268.494 608.708 272.129 612.343 272.129 616.835V746.865C272.129 751.357 268.494 754.992 264.002 754.992Z" fill="#F5EBCD"/>
<path d="M293.732 754.992C292.811 754.992 291.867 754.833 290.954 754.5C286.732 752.968 284.557 748.302 286.097 744.087L324.176 639.454C325.708 635.24 330.398 633.073 334.589 634.597C338.811 636.129 340.986 640.795 339.446 645.01L301.367 749.643C300.168 752.944 297.049 754.992 293.732 754.992V754.992Z" fill="#F5EBCD"/>
<path d="M234.233 755C230.916 755 227.797 752.952 226.598 749.651L188.519 645.026C186.979 640.812 189.154 636.145 193.376 634.613C197.566 633.081 202.257 635.248 203.789 639.47L241.868 744.095C243.408 748.309 241.233 752.976 237.011 754.508C236.098 754.841 235.153 755 234.233 755V755Z" fill="#F5EBCD"/>
<path d="M207.598 631.138L183.805 608.319L180.246 641.093C179.596 647.076 185.449 651.666 191.105 649.607L204.752 644.64C210.408 642.582 211.941 635.304 207.598 631.138Z" fill="#FFA95F"/>
<path d="M320.361 631.138L344.162 608.305L347.718 641.095C348.367 647.078 342.514 651.666 336.859 649.608L323.208 644.639C317.552 642.581 316.018 635.304 320.361 631.138Z" fill="#8CE1A4"/>
<path d="M249.566 613.201L264.003 584.328L278.439 613.201C281.141 618.605 277.211 624.962 271.17 624.962H256.835C250.793 624.962 246.864 618.605 249.566 613.201V613.201Z" fill="#8C9AE1"/>
<path d="M222.229 499.92C203.808 449.308 158.103 419.479 120.144 433.295C114.14 435.48 108.69 438.626 103.841 442.575C78.032 463.592 85.084 513.372 96.804 545.571C115.225 596.183 145.091 619.942 183.05 606.126C201.699 599.338 218.812 593.73 225.344 573.146C232.105 551.832 231.6 525.666 222.229 499.92Z" fill="#FFC269"/>
<path d="M209.061 582.548C171.102 596.364 125.397 566.535 106.976 515.923C97.595 490.148 97.055 463.901 103.841 442.575C78.02 463.587 69.257 507.336 84.768 549.952C103.189 600.564 148.894 630.393 186.853 616.577C205.481 609.797 218.804 593.697 225.343 573.146C220.497 577.089 215.059 580.365 209.061 582.548Z" fill="#FFA95F"/>
<path d="M443.237 549.952C461.658 499.34 445.82 447.111 407.861 433.295C401.857 431.11 395.66 430.016 389.407 429.924C356.127 429.434 329.531 472.101 317.812 504.3C299.391 554.912 306.997 592.309 344.956 606.125C363.605 612.913 380.32 619.617 398.554 608.046C417.434 596.067 433.865 575.698 443.237 549.952Z" fill="#AFEFA5"/>
<path d="M380.037 604.785C342.078 590.969 326.24 538.74 344.661 488.128C354.042 462.353 370.5 441.9 389.407 429.924C356.12 429.423 321.287 457.304 305.776 499.92C287.355 550.532 303.193 602.761 341.152 616.577C359.78 623.357 380.335 619.587 398.554 608.048C392.307 607.953 386.034 606.967 380.037 604.785V604.785Z" fill="#8CE1A4"/>
<path d="M337.144 494.933C337.144 441.073 304.397 397.411 264.002 397.411C257.613 397.411 251.415 398.503 245.508 400.555C214.067 411.477 203.669 460.667 203.669 494.933C203.669 548.793 223.607 581.334 264.002 581.334C283.848 581.334 301.847 581.917 315.025 564.808C328.669 547.092 337.144 522.332 337.144 494.933Z" fill="#A5B5EF"/>
<path d="M296.509 568.074C256.114 568.074 223.367 524.411 223.367 470.552C223.367 443.123 231.837 418.274 245.507 400.555C214.057 411.469 190.859 449.582 190.859 494.933C190.859 548.793 223.606 592.455 264.001 592.455C283.825 592.455 301.85 581.882 315.024 564.807C309.123 566.855 302.892 568.074 296.509 568.074V568.074Z" fill="#8C9AE1"/>
</svg>
