<svg id="Capa_1" enable-background="new 0 0 512 512" height="512" viewBox="0 0 512 512" width="512" xmlns="http://www.w3.org/2000/svg"><g><path d="m181 360h30v62h-30z" fill="#2e5167"/><path d="m241 360h30v62h-30z" fill="#1e3442"/><path d="m458.5 165h-67.5c-6.541 0-13.003-1.062-19.206-3.158-.044-.118-32.565-86.958-32.611-87.081 10.731-18.358 30.586-29.761 51.817-29.761 27.906 0 51.425 19.15 58.102 45h9.398c20.678 0 37.5 16.822 37.5 37.5s-16.822 37.5-37.5 37.5z" fill="#9dcced"/><path d="m140.156 315h-79.156c-24.813 0-45-20.187-45-45s20.187-45 45-45h31.995c4.929 6.271-22.606-28.76 47.161 60z" fill="#c9e8f7"/><path d="m300 365-74 10h-84v-15.94c0-26.625-11.323-52.688-31.066-71.506-33.44-31.873-51.812-74.861-51.733-121.046.075-43.46 16.909-84.647 47.403-115.975 30.504-31.338 71.224-49.262 114.659-50.468 1.542-.042 3.08-.065 4.613-.065 48.459 0 156.926 74.783 156.925 166.799 0 46.083-18.38 88.975-51.753 120.773-19.73 18.8-31.047 34.856-31.047 61.485v15.943z" fill="#dd5a5a"/><path d="m310 359.059c0-26.629 11.316-52.685 31.047-71.485 33.373-31.8 51.753-74.691 51.753-120.774.001-91.975-74.783-166.786-166.8-166.796v374.996h84z" fill="#c30057"/><path d="m436 390h-90v-30h90c8.272 0 15-6.729 15-15s-6.728-15-15-15-15 6.729-15 15h-30c0-24.813 20.186-45 45-45s45 20.187 45 45-20.186 45-45 45z" fill="#9dcced"/><path d="m31 390h75v30h-75z" fill="#c9e8f7"/><path d="m246.333 502-20.333 10h-30.333c-24.63 0-44.667-20.038-44.667-44.667v-60.333h75l65 10v40.333c0 24.629-20.037 44.667-44.667 44.667z" fill="#3d6c84"/><path d="m301 467.333v-60.333h-75v105h30.333c24.63 0 44.667-20.038 44.667-44.667z" fill="#2e5167"/><path d="m256.091 365-30.096 10h-40.085v-15.94c0-28.952-4.375-57.023-12.003-77.017-23.625-61.927-24.146-162.232-1.555-226.053 15.634-44.17 36.328-54.772 50.935-55.888.899-.067 1.813-.102 2.713-.102 26.167 0 60.2 83.911 60.2 166.8 0 43.721-6.433 84.655-18.114 115.262-7.623 19.976-11.995 38.041-11.995 66.997z" fill="#f3d752"/><path d="m266.091 359.059c0-28.956 4.372-57.021 11.995-76.997 11.682-30.607 18.114-71.542 18.114-115.262 0-82.796-24.061-166.607-70.046-166.795h-.154v374.995h40.091z" fill="#e59a32"/></g></svg>