<svg width="512" height="512" viewBox="0 0 512 512" fill="none" xmlns="http://www.w3.org/2000/svg">
<g clip-path="url(#clip0)">
<path d="M181 360H211V422H181V360Z" fill="#2E5167"/>
<path d="M241 360H271V422H241V360Z" fill="#1E3442"/>
<path d="M458.5 165H391C384.459 165 377.997 163.938 371.794 161.842C371.75 161.724 339.229 74.884 339.183 74.761C349.914 56.403 369.769 45 391 45C418.906 45 442.425 64.15 449.102 90H458.5C479.178 90 496 106.822 496 127.5C496 148.178 479.178 165 458.5 165Z" fill="#9DCCED"/>
<path d="M140.156 315H61C36.187 315 16 294.813 16 270C16 245.187 36.187 225 61 225H92.995C97.924 231.271 70.389 196.24 140.156 285V315Z" fill="#C9E8F7"/>
<path d="M300 365L226 375H142V359.06C142 332.435 130.677 306.372 110.934 287.554C77.494 255.681 59.122 212.693 59.201 166.508C59.276 123.048 76.11 81.861 106.604 50.533C137.108 19.195 177.828 1.271 221.263 0.065C222.805 0.023 224.343 0 225.876 0C274.335 0 382.802 74.783 382.801 166.799C382.801 212.882 364.421 255.774 331.048 287.572C311.318 306.372 300.001 322.428 300.001 349.057V365H300Z" fill="#5ADD87"/>
<path d="M310 359.059C310 332.43 321.316 306.374 341.047 287.574C374.42 255.774 392.8 212.883 392.8 166.8C392.801 74.825 318.017 0.0139978 226 0.0039978V375H310V359.059Z" fill="#00C342"/>
<path d="M436 390H346V360H436C444.272 360 451 353.271 451 345C451 336.729 444.272 330 436 330C427.728 330 421 336.729 421 345H391C391 320.187 411.186 300 436 300C460.814 300 481 320.187 481 345C481 369.813 460.814 390 436 390Z" fill="#9DCCED"/>
<path d="M31 390H106V420H31V390Z" fill="#C9E8F7"/>
<path d="M246.333 502L226 512H195.667C171.037 512 151 491.962 151 467.333V407H226L291 417V457.333C291 481.962 270.963 502 246.333 502Z" fill="#3D6C84"/>
<path d="M301 467.333V407H226V512H256.333C280.963 512 301 491.962 301 467.333V467.333Z" fill="#2E5167"/>
<path d="M256.091 365L225.995 375H185.91V359.06C185.91 330.108 181.535 302.037 173.907 282.043C150.282 220.116 149.761 119.811 172.352 55.99C187.986 11.82 208.68 1.218 223.287 0.102C224.186 0.035 225.1 0 226 0C252.167 0 286.2 83.911 286.2 166.8C286.2 210.521 279.767 251.455 268.086 282.062C260.463 302.038 256.091 320.103 256.091 349.059V365Z" fill="#99F352"/>
<path d="M266.091 359.059C266.091 330.103 270.463 302.038 278.086 282.062C289.768 251.455 296.2 210.52 296.2 166.8C296.2 84.004 272.139 0.193005 226.154 0.00500488H226V375H266.091V359.059Z" fill="#40E532"/>
</g>
<defs>
<clipPath id="clip0">
<rect width="512" height="512" fill="white"/>
</clipPath>
</defs>
</svg>
